<?xml version="1.0" encoding="utf-8"?>
<!-- Generator: Adobe Illustrator 24.1.0, SVG Export Plug-In . SVG Version: 6.00 Build 0)  -->
<svg version="1.1" id="レイヤー_1" xmlns="http://www.w3.org/2000/svg" xmlns:xlink="http://www.w3.org/1999/xlink" x="0px"
	 y="0px" viewBox="0 0 24 24" style="enable-background:new 0 0 24 24;" xml:space="preserve">
<style type="text/css">
	.st0{clip-path:url(#SVGID_2_);}
	.st1{fill:#FFFFFF;}
	.st2{fill-rule:evenodd;clip-rule:evenodd;fill:#808080;}
</style>
<g>
	<defs>
		<rect id="SVGID_1_" width="24" height="24"/>
	</defs>
	<clipPath id="SVGID_2_">
		<use xlink:href="#SVGID_1_"  style="overflow:visible;"/>
	</clipPath>
	<g id="アートボード_2" class="st0">
		<rect class="st1" width="24" height="24"/>
		<path id="ico-search" class="st2" d="M17.6,16.2l6.4,6.4L22.6,24l-6.4-6.4c-1.8,1.4-4,2.2-6.3,2.2C4.4,19.8,0,15.4,0,9.9l0,0
			C0,4.4,4.4,0,9.9,0l0,0c5.5,0,9.9,4.4,9.9,9.9C19.8,12.2,19,14.4,17.6,16.2z M9.9,17.8c4.4,0,7.9-3.5,7.9-7.9c0,0,0,0,0,0
			c0-4.4-3.5-7.9-7.9-7.9l0,0C5.5,2,2,5.5,2,9.9l0,0C2,14.3,5.5,17.8,9.9,17.8C9.9,17.8,9.9,17.8,9.9,17.8z"/>
	</g>
</g>
</svg>
